Coordinates
version=1
nRows=5
nColumns=60
inDegrees=yes

Units are S.I. units (second, meters, Newtons, ...)
If the header above contains a line with 'inDegrees', this indicates whether rotational values are in degrees (yes) or radians (no).

endheader
time	pelvis_tilt	pelvis_list	pelvis_rotation	pelvis_tx	pelvis_ty	pelvis_tz	hip_flexion_r	hip_adduction_r	hip_rotation_r	knee_angle_r_beta	knee_angle_r	ankle_angle_r	subtalar_angle_r	mtp_angle_r	hip_flexion_l	hip_adduction_l	hip_rotation_l	knee_angle_l_beta	knee_angle_l	ankle_angle_l	subtalar_angle_l	mtp_angle_l	L5_S1_Flex_Ext	L5_S1_Lat_Bending	L5_S1_axial_rotation	L4_L5_Flex_Ext	L4_L5_Lat_Bending	L4_L5_axial_rotation	L3_L4_Flex_Ext	L3_L4_Lat_Bending	L3_L4_axial_rotation	L2_L3_Flex_Ext	L2_L3_Lat_Bending	L2_L3_axial_rotation	L1_L2_Flex_Ext	L1_L2_Lat_Bending	L1_L2_axial_rotation	L1_T12_Flex_Ext	L1_T12_Lat_Bending	L1_T12_axial_rotation	Abs_r3	Abs_r2	Abs_r1	Abs_t1	Abs_t2	arm_flex_r	arm_add_r	arm_rot_r	elbow_flex_r	pro_sup_r	wrist_flex_r	wrist_dev_r	arm_flex_l	arm_add_l	arm_rot_l	elbow_flex_l	pro_sup_l	wrist_flex_l	wrist_dev_l
      8.25000000	      1.00372296	     -1.45755089	     93.89293374	      0.40519345	      0.92701894	      0.31498040	     15.75716474	     -4.11194285	      1.60412015	      0.32902193	    -18.85156770	      6.30915057	      0.00000000	      0.00000000	     16.17827128	     -5.90478752	      3.79150216	      0.28003070	    -16.04457737	      5.33547436	      0.00000000	      0.00000000	     -6.91751164	      0.28014223	     -0.54526819	    -12.84651086	      0.37258917	     -0.57934745	    -11.36477987	      0.68113782	     -0.57934745	     -7.90602405	      0.68113782	     -0.47710966	     -6.42360131	      0.57126604	     -0.44303040	     -3.95266615	      0.43394032	     -0.40895114	    -49.41109388	      3.16902495	     -3.03261807	      0.00000000	      0.00000000	     87.56699886	    -15.11839199	     19.87777953	     39.43938958	     53.39485063	     22.16732496	     23.21442792	     91.61149464	    -18.65364721	     34.28820616	     32.84311244	     40.33596743	     32.34031539	     13.15197035
      8.26000000	      0.97865225	     -1.58288655	     93.93025719	      0.40544312	      0.92661689	      0.31719179	     16.07920291	     -4.13652583	      1.64752148	      0.33002900	    -18.90926861	      6.18090778	      0.00000000	      0.00000000	     16.42564114	     -5.87051608	      3.86073982	      0.27818681	    -15.93893017	      5.03813151	      0.00000000	      0.00000000	     -6.92540314	      0.27104196	     -0.55491030	    -12.86116617	      0.36048581	     -0.58959219	    -11.37774482	      0.65901143	     -0.58959219	     -7.91504325	      0.65901143	     -0.48554651	     -6.43092935	      0.55270877	     -0.45086462	     -3.95717535	      0.41984400	     -0.41618272	    -49.46746207	      3.06608089	     -3.08624460	      0.00000000	      0.00000000	     88.12861067	    -14.86504183	     19.88910841	     38.73449284	     53.33838806	     22.12933959	     23.15740114	     92.02435030	    -18.47710031	     34.12629138	     32.57108860	     40.29978057	     32.25553281	     13.13441261
      8.27000000	      0.98437632	     -1.65721243	     93.97601615	      0.40568415	      0.92630473	      0.31926217	     16.27439624	     -4.13184679	      1.62179441	      0.32899351	    -18.84993956	      6.17877949	      0.00000000	      0.00000000	     16.61561146	     -5.87846459	      3.83981948	      0.27663795	    -15.85018689	      5.01282245	      0.00000000	      0.00000000	     -6.93841478	      0.26671180	     -0.55631460	    -12.88533009	      0.35472670	     -0.59108426	    -11.39912164	      0.64848308	     -0.59108426	     -7.92991425	      0.64848308	     -0.48677528	     -6.44301197	      0.54387871	     -0.45200561	     -3.96461021	      0.41313658	     -0.41723595	    -49.56040294	      3.01709727	     -3.09405491	      0.00000000	      0.00000000	     88.44665697	    -14.82580131	     19.84676854	     38.68150709	     53.32182737	     22.12170045	     23.13531247	     92.35058480	    -18.41200134	     34.06196203	     32.62421726	     40.29270804	     32.24336414	     13.12199205
      8.28000000	      0.94380706	     -1.77076855	     93.98859550	      0.40593171	      0.92600995	      0.32143268	     16.58406326	     -4.17320109	      1.69053353	      0.33002807	    -18.90921581	      5.89040149	      0.00000000	      0.00000000	     16.78727158	     -5.83397102	      3.97213139	      0.27290452	    -15.63627707	      4.46474402	      0.00000000	      0.00000000	     -6.92850567	      0.25548335	     -0.56494427	    -12.86692787	      0.33979285	     -0.60025328	    -11.38284196	      0.62118221	     -0.60025328	     -7.91858913	      0.62118221	     -0.49432623	     -6.43381036	      0.52098164	     -0.45901722	     -3.95894814	      0.39574371	     -0.42370820	    -49.48962312	      2.89007873	     -3.14205053	      0.00000000	      0.00000000	     88.97393801	    -14.50024313	     19.77130121	     37.64804230	     53.17302150	     22.02804705	     23.04049976	     92.64677608	    -18.27085805	     33.95348113	     32.33992735	     40.29292924	     32.06229080	     13.17559038
      8.29000000	      0.95794084	     -1.79270660	     94.02352841	      0.40613223	      0.92583935	      0.32337173	     16.71292554	     -4.15434901	      1.66595825	      0.32910564	    -18.85636408	      5.88254442	      0.00000000	      0.00000000	     16.90494728	     -5.85402880	      3.93330744	      0.27145771	    -15.55338088	      4.44953041	      0.00000000	      0.00000000	     -6.93075244	      0.25324967	     -0.57215991	    -12.87110036	      0.33682206	     -0.60791990	    -11.38653318	      0.61575124	     -0.60791990	     -7.92115696	      0.61575124	     -0.50063992	     -6.43589672	      0.51642672	     -0.46487993	     -3.96023194	      0.39228374	     -0.42911993	    -49.50567160	      2.86481089	     -3.18218176	      0.00000000	      0.00000000	     89.18498612	    -14.43900432	     19.74986571	     37.60990193	     53.15715064	     22.01652612	     23.01774067	     92.89572094	    -18.26553891	     33.92282730	     32.36375530	     40.30074629	     32.03033963	     13.17910573
